<svg width="40" height="40" viewBox="0 0 40 40" fill="none" xmlns="http://www.w3.org/2000/svg">
<path d="M2.95426 18.9467L4.75 17.5387V32.5C4.75 33.2293 5.03973 33.9288 5.55546 34.4445C6.07118 34.9603 6.77065 35.25 7.5 35.25H32.5C33.2293 35.25 33.9288 34.9603 34.4445 34.4445C34.9603 33.9288 35.25 33.2293 35.25 32.5V17.5489L37.0464 18.9473L37.2423 19.0998L37.3962 18.905L38.9462 16.9425L39.1021 16.745L38.9037 16.5903L20.9175 2.56635C20.9173 2.56618 20.9171 2.56601 20.9169 2.56585C20.6521 2.35691 20.3247 2.24326 19.9875 2.24326C19.6502 2.24326 19.3228 2.35691 19.0581 2.56587C19.0579 2.56603 19.0577 2.56619 19.0575 2.56635L1.09623 16.5779L0.898537 16.7321L1.05333 16.9293L2.60333 18.9043L2.75761 19.1009L2.95426 18.9467ZM17.75 32.25V22.75H22.25V32.25H17.75ZM25.25 32.25V22.5C25.25 21.7707 24.9603 21.0712 24.4445 20.5555C23.9288 20.0397 23.2293 19.75 22.5 19.75H17.5C16.7707 19.75 16.0712 20.0397 15.5555 20.5555C15.0397 21.0712 14.75 21.7707 14.75 22.5V32.25H7.75V15.1972L19.9999 5.65448L32.25 15.2096V32.25H25.25Z" fill="black" stroke="black" stroke-width="0.5"/>
</svg>
